solid OpenSCAD_Model
  facet normal 1 -0 0
    outer loop
      vertex 25.4 0 110
      vertex 25.4 25.4 0
      vertex 25.4 25.4 110
    endloop
  endfacet
  facet normal 1 0 0
    outer loop
      vertex 25.4 25.4 0
      vertex 25.4 0 110
      vertex 25.4 0 0
    endloop
  endfacet
  facet normal 0 0 1
    outer loop
      vertex 25.4 25.4 110
      vertex 24.4 24.4 110
      vertex 25.4 0 110
    endloop
  endfacet
  facet normal 0 0 1
    outer loop
      vertex 25.4 25.4 110
      vertex 1 24.4 110
      vertex 24.4 24.4 110
    endloop
  endfacet
  facet normal 0 0 1
    outer loop
      vertex 1 24.4 110
      vertex 0 25.4 110
      vertex 1 1 110
    endloop
  endfacet
  facet normal -0 0 1
    outer loop
      vertex 0 25.4 110
      vertex 1 24.4 110
      vertex 25.4 25.4 110
    endloop
  endfacet
  facet normal -0 0 1
    outer loop
      vertex 24.4 1 110
      vertex 25.4 0 110
      vertex 24.4 24.4 110
    endloop
  endfacet
  facet normal -0 0 1
    outer loop
      vertex 1 1 110
      vertex 25.4 0 110
      vertex 24.4 1 110
    endloop
  endfacet
  facet normal 0 0 1
    outer loop
      vertex 1 1 110
      vertex 0 0 110
      vertex 25.4 0 110
    endloop
  endfacet
  facet normal 0 0 1
    outer loop
      vertex 0 0 110
      vertex 1 1 110
      vertex 0 25.4 110
    endloop
  endfacet
  facet normal 0 0 -1
    outer loop
      vertex 25.4 0 0
      vertex 24.4 1 0
      vertex 25.4 25.4 0
    endloop
  endfacet
  facet normal 0 0 -1
    outer loop
      vertex 25.4 0 0
      vertex 1 1 0
      vertex 24.4 1 0
    endloop
  endfacet
  facet normal -0 0 -1
    outer loop
      vertex 1 1 0
      vertex 0 0 0
      vertex 1 24.4 0
    endloop
  endfacet
  facet normal 0 0 -1
    outer loop
      vertex 0 0 0
      vertex 1 1 0
      vertex 25.4 0 0
    endloop
  endfacet
  facet normal 0 0 -1
    outer loop
      vertex 24.4 24.4 0
      vertex 25.4 25.4 0
      vertex 24.4 1 0
    endloop
  endfacet
  facet normal 0 0 -1
    outer loop
      vertex 1 24.4 0
      vertex 25.4 25.4 0
      vertex 24.4 24.4 0
    endloop
  endfacet
  facet normal 0 0 -1
    outer loop
      vertex 1 24.4 0
      vertex 0 25.4 0
      vertex 25.4 25.4 0
    endloop
  endfacet
  facet normal 0 0 -1
    outer loop
      vertex 0 25.4 0
      vertex 1 24.4 0
      vertex 0 0 0
    endloop
  endfacet
  facet normal -1 0 0
    outer loop
      vertex 0 0 0
      vertex 0 25.4 110
      vertex 0 25.4 0
    endloop
  endfacet
  facet normal -1 -0 0
    outer loop
      vertex 0 25.4 110
      vertex 0 0 0
      vertex 0 0 110
    endloop
  endfacet
  facet normal 0 1 -0
    outer loop
      vertex 25.4 25.4 0
      vertex 0 25.4 110
      vertex 25.4 25.4 110
    endloop
  endfacet
  facet normal 0 1 0
    outer loop
      vertex 0 25.4 110
      vertex 25.4 25.4 0
      vertex 0 25.4 0
    endloop
  endfacet
  facet normal 0 -1 0
    outer loop
      vertex 0 0 0
      vertex 25.4 0 110
      vertex 0 0 110
    endloop
  endfacet
  facet normal 0 -1 -0
    outer loop
      vertex 25.4 0 110
      vertex 0 0 0
      vertex 25.4 0 0
    endloop
  endfacet
  facet normal -1 0 0
    outer loop
      vertex 24.4 1 0
      vertex 24.4 24.4 110
      vertex 24.4 24.4 0
    endloop
  endfacet
  facet normal -1 -0 0
    outer loop
      vertex 24.4 24.4 110
      vertex 24.4 1 0
      vertex 24.4 1 110
    endloop
  endfacet
  facet normal 1 -0 0
    outer loop
      vertex 1 1 110
      vertex 1 24.4 0
      vertex 1 24.4 110
    endloop
  endfacet
  facet normal 1 0 0
    outer loop
      vertex 1 24.4 0
      vertex 1 1 110
      vertex 1 1 0
    endloop
  endfacet
  facet normal 0 -1 0
    outer loop
      vertex 1 24.4 0
      vertex 24.4 24.4 110
      vertex 1 24.4 110
    endloop
  endfacet
  facet normal 0 -1 -0
    outer loop
      vertex 24.4 24.4 110
      vertex 1 24.4 0
      vertex 24.4 24.4 0
    endloop
  endfacet
  facet normal 0 1 -0
    outer loop
      vertex 24.4 1 0
      vertex 1 1 110
      vertex 24.4 1 110
    endloop
  endfacet
  facet normal 0 1 0
    outer loop
      vertex 1 1 110
      vertex 24.4 1 0
      vertex 1 1 0
    endloop
  endfacet
endsolid OpenSCAD_Model
